<?xml version="1.0" encoding="utf-8"?>
<!-- Generator: Adobe Illustrator 24.3.0, SVG Export Plug-In . SVG Version: 6.00 Build 0)  -->
<svg version="1.1" id="Слой_1" xmlns="http://www.w3.org/2000/svg" xmlns:xlink="http://www.w3.org/1999/xlink" x="0px" y="0px"
	 viewBox="0 0 445 445" style="enable-background:new 0 0 445 445;" xml:space="preserve">
<style type="text/css">
	.st0{fill:#FFFFFF;}
	.st1{fill:#ED1C24;}
	.st2{fill:none;stroke:#ED1C24;stroke-width:15;stroke-miterlimit:10;}
</style>
<g>
	<path class="st0" d="M20.8,437.5c-7.3,0-13.3-6-13.3-13.3V20.8c0-7.3,6-13.3,13.3-13.3h403.4c7.3,0,13.3,6,13.3,13.3v403.4
		c0,7.3-6,13.3-13.3,13.3H20.8z"/>
	<path class="st1" d="M424.2,15c3.2,0,5.8,2.6,5.8,5.8v403.4c0,3.2-2.6,5.8-5.8,5.8H20.8c-3.2,0-5.8-2.6-5.8-5.8V20.8
		c0-3.2,2.6-5.8,5.8-5.8H424.2 M424.2,0H20.8C9.3,0,0,9.3,0,20.8v403.4C0,435.7,9.3,445,20.8,445h403.4c11.5,0,20.8-9.3,20.8-20.8
		V20.8C445,9.3,435.7,0,424.2,0L424.2,0z"/>
</g>
<g>
	<line class="st2" x1="34.5" y1="410.5" x2="405.5" y2="38.5"/>
</g>
<g>
	<line class="st2" x1="405.3" y1="410.6" x2="34.3" y2="38.6"/>
</g>
</svg>
