<?xml version="1.0" encoding="utf-8"?>
<!-- Generator: Adobe Illustrator 24.3.0, SVG Export Plug-In . SVG Version: 6.00 Build 0)  -->
<svg version="1.1" id="Слой_1" xmlns="http://www.w3.org/2000/svg" xmlns:xlink="http://www.w3.org/1999/xlink" x="0px" y="0px"
	 viewBox="0 0 418 418" style="enable-background:new 0 0 418 418;" xml:space="preserve">
<style type="text/css">
	.st0{fill:#FFFFFF;}
	.st1{fill:#39B54A;}
	.st2{fill:none;stroke:#39B54A;stroke-width:24;stroke-miterlimit:10;}
</style>
<g>
	<path class="st0" d="M33.7,409.5c-13.9,0-25.2-11.3-25.2-25.2V33.7c0-13.9,11.3-25.2,25.2-25.2h350.6c13.9,0,25.2,11.3,25.2,25.2
		v350.6c0,13.9-11.3,25.2-25.2,25.2H33.7z"/>
	<path class="st1" d="M384.3,17c9.2,0,16.7,7.5,16.7,16.7v350.6c0,9.2-7.5,16.7-16.7,16.7H33.7c-9.2,0-16.7-7.5-16.7-16.7V33.7
		C17,24.5,24.5,17,33.7,17H384.3 M384.3,0H33.7C15.1,0,0,15.1,0,33.7v350.6C0,402.9,15.1,418,33.7,418h350.6
		c18.6,0,33.7-15.1,33.7-33.7V33.7C418,15.1,402.9,0,384.3,0L384.3,0z"/>
</g>
<path class="st2" d="M211,379c0-185.4-80.5-335.5-180-335.5"/>
<path class="st2" d="M211.3,374.5c0-185.4,80.5-335.5,180-335.5"/>
</svg>
